<svg xmlns="http://www.w3.org/2000/svg" xmlns:xlink="http://www.w3.org/1999/xlink" width="2000" zoomAndPan="magnify" viewBox="0 0 1500 1499.999933" height="2000" preserveAspectRatio="xMidYMid meet" version="1.0"><defs><g/><clipPath id="1c2d095447"><rect x="0" width="1231" y="0" height="1452"/></clipPath></defs><g transform="matrix(1, 0, 0, 1, 136, 48)"><g clip-path="url(#1c2d095447)"><g fill="currentColor" fill-opacity="1"><g transform="translate(0.778998, 1946.924904)"><g><path d="M 562.640625 -697.46875 L 562.640625 -1052.6875 C 562.640625 -1087.257812 553.128906 -1110.160156 534.109375 -1121.390625 C 515.097656 -1132.628906 490.898438 -1129.609375 461.515625 -1112.328125 L 152.984375 -933.421875 L 103.71875 -1018.984375 L 409.671875 -1197.890625 C 439.054688 -1216.898438 453.75 -1237.207031 453.75 -1258.8125 C 453.75 -1280.425781 439.054688 -1299.875 409.671875 -1317.15625 L 103.71875 -1493.46875 L 152.984375 -1579.03125 L 461.515625 -1402.71875 C 490.898438 -1385.4375 515.097656 -1382.410156 534.109375 -1393.640625 C 553.128906 -1404.878906 562.640625 -1427.785156 562.640625 -1462.359375 L 562.640625 -1817.578125 L 661.171875 -1817.578125 L 661.171875 -1462.359375 C 661.171875 -1427.785156 671.109375 -1404.878906 690.984375 -1393.640625 C 710.867188 -1382.410156 735.503906 -1385.4375 764.890625 -1402.71875 L 1073.4375 -1579.03125 L 1122.6875 -1493.46875 L 814.140625 -1317.15625 C 784.753906 -1299.875 770.0625 -1280.425781 770.0625 -1258.8125 C 770.0625 -1237.207031 784.753906 -1216.898438 814.140625 -1197.890625 L 1122.6875 -1018.984375 L 1073.4375 -933.421875 L 764.890625 -1112.328125 C 735.503906 -1129.609375 710.867188 -1132.628906 690.984375 -1121.390625 C 671.109375 -1110.160156 661.171875 -1087.257812 661.171875 -1052.6875 L 661.171875 -697.46875 Z M 562.640625 -697.46875 "/></g></g></g></g></g></svg>