<svg xmlns="http://www.w3.org/2000/svg" xmlns:xlink="http://www.w3.org/1999/xlink" width="2000" zoomAndPan="magnify" viewBox="0 0 1500 1499.999933" height="2000" preserveAspectRatio="xMidYMid meet" version="1.0"><defs><g/><clipPath id="6fe5fc59fa"><rect x="0" width="866" y="0" height="1411"/></clipPath><clipPath id="82cf84694f"><rect x="0" width="1348" y="0" height="268"/></clipPath></defs><g transform="matrix(1, 0, 0, 1, 317, 89)"><g clip-path="url(#6fe5fc59fa)"><g fill="currentColor" fill-opacity="1"><g transform="translate(1.126227, 1370.766803)"><g><path d="M 396.265625 -491.21875 L 396.265625 -741.390625 C 396.265625 -765.742188 389.566406 -781.875 376.171875 -789.78125 C 362.785156 -797.695312 345.742188 -795.566406 325.046875 -783.390625 L 107.734375 -657.390625 L 73.046875 -717.65625 L 288.515625 -843.65625 C 309.210938 -857.050781 319.5625 -871.351562 319.5625 -886.5625 C 319.5625 -901.78125 309.210938 -915.476562 288.515625 -927.65625 L 73.046875 -1051.828125 L 107.734375 -1112.09375 L 325.046875 -987.921875 C 345.742188 -975.742188 362.785156 -973.609375 376.171875 -981.515625 C 389.566406 -989.429688 396.265625 -1005.566406 396.265625 -1029.921875 L 396.265625 -1280.09375 L 465.65625 -1280.09375 L 465.65625 -1029.921875 C 465.65625 -1005.566406 472.65625 -989.429688 486.65625 -981.515625 C 500.65625 -973.609375 518.003906 -975.742188 538.703125 -987.921875 L 756 -1112.09375 L 790.703125 -1051.828125 L 573.390625 -927.65625 C 552.691406 -915.476562 542.34375 -901.78125 542.34375 -886.5625 C 542.34375 -871.351562 552.691406 -857.050781 573.390625 -843.65625 L 790.703125 -717.65625 L 756 -657.390625 L 538.703125 -783.390625 C 518.003906 -795.566406 500.65625 -797.695312 486.65625 -789.78125 C 472.65625 -781.875 465.65625 -765.742188 465.65625 -741.390625 L 465.65625 -491.21875 Z M 396.265625 -491.21875 "/></g></g></g></g></g><g transform="matrix(1, 0, 0, 1, 76, 1097)"><g clip-path="url(#82cf84694f)"><g fill="#000000" fill-opacity="1"><g transform="translate(1.505868, 206.672104)"><g><path d="M 45.125 57.75 L 45.375 28.875 L 140.765625 28.875 L 140.765625 0 L 45.375 0 L 16.5 -28.875 L 16.5 -119.625 L 45.375 -148.5 L 140.765625 -148.5 L 169.640625 -119.625 L 169.640625 28.875 L 140.765625 57.75 Z M 45.375 -28.875 L 140.765625 -28.875 L 140.765625 -119.625 L 45.375 -119.625 Z M 45.375 -28.875 "/></g></g></g><g fill="#000000" fill-opacity="1"><g transform="translate(187.642055, 206.672104)"><g><path d="M 16.5 0 L 16.5 -119.625 L 45.375 -148.5 L 168.359375 -148.5 L 197.234375 -119.625 L 197.234375 0 L 168.359375 0 L 168.359375 -119.625 L 121.4375 -119.625 L 121.4375 -39.703125 L 92.5625 -39.703125 L 92.5625 -119.625 L 45.375 -119.625 L 45.375 0 Z M 16.5 0 "/></g></g></g><g fill="#000000" fill-opacity="1"><g transform="translate(401.363533, 206.672104)"><g><path d="M 16.5 0 L 16.5 -28.875 L 140.765625 -28.875 L 140.765625 -59.8125 L 45.375 -59.8125 L 16.5 -88.6875 L 16.5 -119.625 L 45.125 -148.25 L 45.125 -148.5 L 169.640625 -148.5 L 169.640625 -119.625 L 45.375 -119.625 L 45.375 -88.6875 L 140.765625 -88.6875 L 169.640625 -59.8125 L 169.640625 -28.875 L 141.03125 -0.265625 L 141.03125 0 Z M 16.5 0 "/></g></g></g><g fill="#000000" fill-opacity="1"><g transform="translate(587.49972, 206.672104)"><g/></g></g><g fill="#000000" fill-opacity="1"><g transform="translate(716.40289, 206.672104)"><g><path d="M 16.5 0 L 16.5 -28.875 L 45.375 -28.875 L 45.375 0 Z M 16.5 0 "/></g></g></g><g fill="#000000" fill-opacity="1"><g transform="translate(778.276372, 206.672104)"><g><path d="M 45.375 0 L 16.5 -28.875 L 16.5 -119.625 L 45.375 -148.5 L 140.765625 -148.5 L 140.765625 -177.375 L 169.640625 -177.375 L 169.640625 -28.875 L 140.765625 0 Z M 45.375 -28.875 L 140.765625 -28.875 L 140.765625 -119.625 L 45.375 -119.625 Z M 45.375 -28.875 "/></g></g></g><g fill="#000000" fill-opacity="1"><g transform="translate(964.412559, 206.672104)"><g><path d="M 45.375 0 L 16.5 -28.875 L 16.5 -119.625 L 45.375 -148.5 L 174.28125 -148.5 L 174.28125 -119.625 L 45.375 -119.625 L 45.375 -88.6875 L 140.765625 -88.6875 L 140.765625 -59.8125 L 45.375 -59.8125 L 45.375 -28.875 L 174.28125 -28.875 L 174.28125 0 Z M 45.375 0 "/></g></g></g><g fill="#000000" fill-opacity="1"><g transform="translate(1155.189327, 206.672104)"><g><path d="M 53.109375 0 L 24.234375 -28.875 L 16.5 -148.5 L 45.375 -148.5 L 53.109375 -28.875 L 138.1875 -28.875 L 145.921875 -148.5 L 174.796875 -148.5 L 167.0625 -28.875 L 138.1875 0 Z M 53.109375 0 "/></g></g></g></g></g></svg>